<?xml version="1.0" encoding="UTF-8"?>
<!DOCTYPE svg PUBLIC "-//W3C//DTD SVG 1.1//EN" "http://www.w3.org/Graphics/SVG/1.1/DTD/svg11.dtd">
<!-- Creator: CorelDRAW 2020 (64-Bit) -->
<svg xmlns="http://www.w3.org/2000/svg" xml:space="preserve" width="183.719mm" height="94.3869mm" version="1.1" style="shape-rendering:geometricPrecision; text-rendering:geometricPrecision; image-rendering:optimizeQuality; fill-rule:evenodd; clip-rule:evenodd"
viewBox="0 0 13487.37 6929.24"
 xmlns:xlink="http://www.w3.org/1999/xlink"
 xmlns:xodm="http://www.corel.com/coreldraw/odm/2003">
 <defs>
  <style type="text/css">
   <![CDATA[
    .fil0 {fill:#FEFEFE}
    .fil1 {fill:#49AD96}
    .fil2 {fill:#86C3B3}
   ]]>
  </style>
 </defs>
 <g id="Layer_x0020_1">
  <metadata id="CorelCorpID_0Corel-Layer"/>
  <g id="_1699622830080">
   <path class="fil0" d="M7873.88 1711.56l-1420.24 3.85c-370.53,1.27 -311.59,-46.96 -496.25,212.8l-924.11 1302.69c-56.99,73.53 -101.13,142.69 -161.16,202.39l0.32 -3426.58c-307.84,-1.81 -1225.55,-17.97 -1497.27,7.48l5.01 5962.8 1494.49 1.42 0.12 -1668.65c80.41,58.66 514.21,685.11 624.02,830.81l460.72 626.29c48.67,66.42 97.57,143.47 157.41,213.82l1772.02 0.82c-113.01,-227.49 -428.19,-596.89 -593.13,-825.68l-941.22 -1307.19 1519.26 -2137.08z"/>
   <path class="fil0" d="M12465.53 5970.95l993.03 1.97 -7.99 -1431c-1221.11,134.6 -1362.37,-244.58 -1286.72,-1387.71l1289.5 3.38 9.92 -1432.14 -1309.18 -7.61 -1.64 -1188.6 -1482.45 2.03 -7.49 1183.95 -534.54 6.7 0.46 1434.51 535.95 4.04c36.5,790.15 -105.88,1360.33 323.41,1980.96 180.92,261.56 314.86,393.51 597.62,569.41 232.92,144.9 555.41,262.45 880.11,260.11z"/>
   <path class="fil0" d="M19.66 2331.22c670.64,18.73 917.41,-25.8 1485.57,-235.81l2.98 3882.44 1484.12 3.12 -1.63 -863.29c1.27,-1606.48 -30.96,-3543.83 6.56,-5114.15l-1470.61 1.86c-13.11,351.23 -255.05,594.38 -481.7,714.46 -294.32,155.93 -668.33,158.8 -1026.76,144.01l1.47 1467.36z"/>
   <polygon class="fil1" points="43.95,6929.24 13461.43,6919.12 13456.02,6394.01 503.72,6386.01 493.09,5946.29 27.1,5930.18 "/>
   <polygon class="fil0" points="8214.82,5980.35 9723.04,5983.01 9726.99,1716.28 8217.98,1725.27 "/>
   <polygon class="fil0" points="8218.67,222.85 8218.34,1339.22 9727.73,1348.85 9723.81,7.07 8217.71,10.21 "/>
   <path class="fil0" d="M13453.36 3157.59c2.5,-6.21 6.22,-14.04 7.35,-18.68 31.11,-127.66 16.92,-568.26 15.82,-714.69 -1.25,-164.95 30.71,-588.11 -21.25,-716.33l-1291.68 4.21c20.78,-200.32 36.31,-1036.19 -11.14,-1182.87l1.64 1188.6 1309.18 7.61 -9.92 1432.14z"/>
   <path class="fil0" d="M12465.53 5970.95c110.02,40.73 848.5,36.3 994.63,9.7 33.94,-133.03 18.36,-861.75 18.29,-1096.07 -0.01,-78.13 32.97,-296.21 -27.88,-342.66l7.99 1431 -993.03 -1.97z"/>
   <path class="fil2" d="M43.95 6929.24l-16.85 -999.06 465.98 16.11c-46.72,-60.35 34.7,-31.58 -97.84,-45.25l-371.16 13.68c-34.84,106.51 -19.14,596.25 -20.59,782.81 -1.54,198.14 -18.74,196.31 40.46,231.7z"/>
  </g>
 </g>
</svg>
